<?xml version="1.0" standalone="no"?>
<!DOCTYPE svg PUBLIC "-//W3C//DTD SVG 20010904//EN"
 "http://www.w3.org/TR/2001/REC-SVG-20010904/DTD/svg10.dtd">
<svg version="1.0" xmlns="http://www.w3.org/2000/svg"
 width="512.000000pt" height="512.000000pt" viewBox="0 0 512.000000 512.000000"
 preserveAspectRatio="xMidYMid meet">

<g transform="translate(0.000000,512.000000) scale(0.100000,-0.100000)"
fill="#000000" stroke="none">
<path d="M1980 5111 c-69 -22 -130 -74 -164 -140 -13 -24 -22 -29 -73 -34
-204 -22 -432 -135 -587 -290 -83 -84 -172 -212 -213 -311 l-29 -69 -62 -13
c-167 -34 -299 -171 -332 -343 -13 -69 -13 -243 0 -312 33 -172 165 -309 331
-343 l61 -12 29 -68 c92 -216 274 -405 493 -511 143 -70 259 -96 454 -102
l163 -6 -3 -89 -3 -90 -62 -23 c-63 -24 -160 -81 -200 -118 -14 -13 -45 -23
-83 -28 -100 -14 -219 -59 -302 -115 -68 -45 -87 -53 -158 -63 -109 -16 -174
-36 -246 -77 -130 -71 -230 -194 -280 -339 -24 -72 -27 -97 -31 -255 -5 -195
0 -215 54 -240 l33 -15 0 -81 0 -80 -32 -15 c-18 -8 -38 -25 -45 -39 -18 -36
-18 -544 1 -621 25 -110 90 -189 196 -238 l55 -26 1615 0 1615 0 67 33 c77 38
130 92 167 171 l26 56 0 635 0 635 -28 80 c-52 147 -152 268 -281 339 -72 41
-137 61 -246 77 -71 10 -90 18 -158 63 -83 56 -202 101 -302 115 -37 5 -69 16
-83 28 -46 42 -123 88 -191 114 l-71 27 -3 90 -3 89 163 6 c129 4 183 10 261
31 186 48 378 161 498 294 68 76 152 204 188 288 l29 68 61 12 c166 34 298
171 331 343 13 69 13 243 0 312 -33 172 -183 324 -341 345 l-48 6 -55 112
c-84 171 -194 298 -351 403 -113 76 -257 133 -390 153 -105 16 -104 16 -114
44 -15 37 -70 95 -115 119 -41 22 -45 22 -611 24 -313 1 -581 -2 -595 -6z
m1143 -181 c14 -11 28 -33 31 -48 24 -106 -121 -387 -221 -428 -47 -20 -699
-20 -746 0 -100 41 -245 322 -221 428 3 15 17 37 31 48 25 19 40 20 563 20
523 0 538 -1 563 -20z m-1307 -213 c13 -51 78 -190 113 -243 l21 -31 -91 -6
c-216 -16 -391 -102 -507 -250 -107 -136 -143 -234 -149 -402 -6 -142 9 -219
62 -329 86 -175 245 -306 440 -363 54 -16 133 -18 805 -21 522 -2 769 0 824 8
151 22 273 81 381 185 76 74 128 153 168 259 30 77 31 88 32 226 0 158 -8 197
-67 315 -84 168 -252 303 -435 349 -34 9 -102 19 -152 23 l-91 6 21 31 c35 53
100 192 113 243 15 60 31 63 149 34 305 -78 540 -315 618 -624 27 -106 38
-468 19 -627 -35 -305 -207 -551 -475 -680 -184 -89 -128 -84 -1005 -88 -533
-2 -799 0 -852 8 -339 49 -621 302 -709 635 -27 102 -38 472 -20 634 27 232
129 424 301 568 124 104 338 197 439 190 33 -2 36 -5 47 -50z m-957 -694 c-4
-32 -7 -152 -7 -268 0 -115 3 -236 7 -267 8 -69 3 -71 -65 -25 -31 21 -58 51
-78 87 -31 55 -31 56 -31 205 0 149 0 150 31 205 20 36 47 66 78 88 68 45 73
43 65 -25z m3467 25 c31 -22 58 -52 78 -88 31 -55 31 -56 31 -205 0 -149 0
-150 -31 -205 -20 -36 -47 -66 -78 -87 -68 -46 -73 -44 -65 25 4 31 7 152 7
267 0 116 -3 236 -7 268 -8 68 -3 70 65 25z m-2391 -233 c52 -51 16 -145 -55
-145 -40 0 -90 47 -90 85 0 16 12 38 29 56 38 37 82 39 116 4z m1366 -4 c17
-18 29 -40 29 -56 0 -38 -50 -85 -90 -85 -44 0 -80 39 -80 85 0 79 84 112 141
56z m-401 -1364 l0 -112 -170 -170 -170 -170 -170 170 -170 170 0 112 0 113
340 0 340 0 0 -113z m-643 -389 l152 -151 -47 -30 c-26 -16 -70 -49 -98 -73
l-52 -43 -150 181 -151 181 24 19 c32 25 126 68 150 68 12 0 77 -57 172 -152z
m858 123 c110 -53 115 -32 -56 -238 l-151 -182 -60 50 c-32 27 -77 59 -98 72
l-40 22 153 153 c95 95 159 152 172 152 11 0 47 -13 80 -29z m-1104 -443 c121
-146 142 -165 189 -173 32 -5 37 -11 53 -55 10 -27 33 -70 52 -95 19 -25 35
-49 35 -53 0 -5 -13 -33 -29 -63 -41 -74 -78 -209 -93 -334 -7 -58 -15 -101
-19 -97 -15 15 -111 262 -154 396 -54 165 -86 289 -115 441 -11 61 -23 120
-26 133 -2 12 -2 22 0 22 3 0 51 -55 107 -122z m1188 13 c-28 -156 -64 -299
-114 -458 -44 -138 -148 -410 -163 -425 -4 -4 -13 39 -20 97 -15 125 -52 260
-93 334 -16 30 -29 58 -29 63 0 4 16 28 35 53 19 25 42 68 52 95 13 38 23 50
38 50 42 0 88 39 196 168 61 74 112 132 114 130 2 -2 -5 -50 -16 -107z"/>
</g>
</svg>
